<svg width="200" height="200" viewBox="0 0 438 200" fill="none" xmlns="http://www.w3.org/2000/svg">
<path d="M81.5062 133.3C78.4312 138.137 76.625 143.856 76.625 150C76.625 167.231 90.6437 181.25 107.875 181.25C108.816 181.25 109.772 181.2 110.759 181.103C115.438 190.628 125.284 196.875 136 196.875C151.506 196.875 164.125 184.256 164.125 168.75V134.375H186V128.125H164.125V115.625H214.125V109.375H164.125V90.625H170.375V84.375H164.125V71.875H201.625V65.625H164.125V31.25C164.125 15.7438 151.506 3.125 136 3.125C124.728 3.125 115.009 9.80625 110.525 19.4062L110.378 19.4375C94.4406 22.6719 82.875 36.8406 82.875 53.125C82.875 57.0625 83.5438 60.9156 84.8687 64.6125C72.1781 71.7625 64.125 85.3469 64.125 100C64.125 113.291 70.7125 125.744 81.5062 133.3ZM90.1656 68.9094L92.9656 67.5938L91.6781 64.7812C89.9844 61.0719 89.125 57.1531 89.125 53.125C89.125 40.9719 97.0063 30.2844 108.312 26.4813C108.044 28.0344 107.875 29.6219 107.875 31.25C107.875 36.1937 109.178 41.0563 111.641 45.3125L117.05 42.1844C115.138 38.8781 114.125 35.0938 114.125 31.25C114.125 19.1875 123.938 9.375 136 9.375C148.062 9.375 157.875 19.1875 157.875 31.25V168.75C157.875 180.812 148.062 190.625 136 190.625C127.016 190.625 118.816 184.975 115.591 176.566L114.672 174.166L112.141 174.603C110.609 174.872 109.213 175 107.875 175C94.0906 175 82.875 163.784 82.875 150C82.875 136.216 94.0906 125 107.875 125V118.75C99.0563 118.75 91.0969 122.438 85.4094 128.331C76.1062 121.956 70.375 111.363 70.375 100C70.375 86.7656 78.1438 74.5625 90.1656 68.9094ZM145.375 168.75H151.625C151.625 177.366 144.616 184.375 136 184.375V178.125C141.169 178.125 145.375 173.919 145.375 168.75ZM107.875 162.5V168.75C97.5344 168.75 89.125 160.341 89.125 150H95.375C95.375 156.894 100.981 162.5 107.875 162.5ZM226.625 165.625C226.625 170.794 230.831 175 236 175C241.169 175 245.375 170.794 245.375 165.625C245.375 161.556 242.753 158.119 239.125 156.825V143.75C239.125 135.134 232.116 128.125 223.5 128.125H192.25V134.375H223.5C228.669 134.375 232.875 138.581 232.875 143.75V156.825C229.247 158.119 226.625 161.556 226.625 165.625ZM236 168.75C234.278 168.75 232.875 167.347 232.875 165.625C232.875 163.903 234.278 162.5 236 162.5C237.722 162.5 239.125 163.903 239.125 165.625C239.125 167.347 237.722 168.75 236 168.75ZM257.875 112.5C257.875 107.331 253.669 103.125 248.5 103.125C244.431 103.125 240.994 105.747 239.7 109.375H220.375V115.625H239.7C240.994 119.253 244.431 121.875 248.5 121.875C253.669 121.875 257.875 117.669 257.875 112.5ZM245.375 112.5C245.375 110.778 246.778 109.375 248.5 109.375C250.222 109.375 251.625 110.778 251.625 112.5C251.625 114.222 250.222 115.625 248.5 115.625C246.778 115.625 245.375 114.222 245.375 112.5ZM239.7 84.375H176.625V90.625H239.7C240.994 94.2531 244.431 96.875 248.5 96.875C253.669 96.875 257.875 92.6687 257.875 87.5C257.875 82.3313 253.669 78.125 248.5 78.125C244.431 78.125 240.994 80.7469 239.7 84.375ZM248.5 84.375C250.222 84.375 251.625 85.7781 251.625 87.5C251.625 89.2219 250.222 90.625 248.5 90.625C246.778 90.625 245.375 89.2219 245.375 87.5C245.375 85.7781 246.778 84.375 248.5 84.375ZM239.125 56.25V43.175C242.753 41.8812 245.375 38.4437 245.375 34.375C245.375 29.2062 241.169 25 236 25C230.831 25 226.625 29.2062 226.625 34.375C226.625 38.4437 229.247 41.8812 232.875 43.175V56.25C232.875 61.4188 228.669 65.625 223.5 65.625H207.875V71.875H223.5C232.116 71.875 239.125 64.8656 239.125 56.25ZM236 31.25C237.722 31.25 239.125 32.6531 239.125 34.375C239.125 36.0969 237.722 37.5 236 37.5C234.278 37.5 232.875 36.0969 232.875 34.375C232.875 32.6531 234.278 31.25 236 31.25ZM98.1219 106.094C92.0281 100.003 92.0281 90.0875 98.1219 83.9969C104.212 77.9031 114.128 77.9062 120.219 83.9969L115.8 88.4156C112.144 84.7594 106.197 84.7562 102.541 88.4156C98.8875 92.0719 98.8875 98.0187 102.541 101.675L98.1219 106.094ZM126.625 31.25H120.375C120.375 22.6344 127.384 15.625 136 15.625C144.616 15.625 151.625 22.6344 151.625 31.25H145.375C145.375 26.0812 141.169 21.875 136 21.875C130.831 21.875 126.625 26.0812 126.625 31.25ZM132.875 90.625V84.375C138.044 84.375 142.25 80.1687 142.25 75C142.25 69.8313 138.044 65.625 132.875 65.625V59.375C141.491 59.375 148.5 66.3844 148.5 75C148.5 83.6156 141.491 90.625 132.875 90.625ZM132.875 125V131.25C127.706 131.25 123.5 135.456 123.5 140.625C123.5 145.794 127.706 150 132.875 150V156.25C124.259 156.25 117.25 149.241 117.25 140.625C117.25 132.009 124.259 125 132.875 125Z" fill="#38C7C0"/>
<path d="M287.169 110C286.786 110 286.453 109.869 286.168 109.606C285.895 109.332 285.758 108.999 285.758 108.605V90.3841C285.758 89.9901 285.895 89.6618 286.168 89.3992C286.453 89.1256 286.786 88.9888 287.169 88.9888H294.72C295.508 88.9888 296.241 89.1365 296.92 89.432C297.609 89.7275 298.206 90.1324 298.709 90.6467C299.223 91.161 299.623 91.7629 299.907 92.4524C300.203 93.1418 300.351 93.875 300.351 94.652C300.351 95.4618 300.192 96.2278 299.875 96.9501C299.568 97.6614 299.141 98.2906 298.594 98.8378C299.382 99.4069 300.011 100.129 300.482 101.005C300.963 101.88 301.204 102.843 301.204 103.894C301.204 104.758 301.04 105.562 300.712 106.307C300.383 107.051 299.935 107.696 299.366 108.244C298.797 108.791 298.129 109.223 297.363 109.54C296.597 109.847 295.776 110 294.901 110H287.169ZM288.598 100.479V107.16H294.819C295.311 107.16 295.771 107.067 296.198 106.881C296.635 106.695 297.013 106.443 297.33 106.126C297.659 105.798 297.91 105.426 298.085 105.01C298.271 104.594 298.364 104.156 298.364 103.697C298.364 103.226 298.271 102.794 298.085 102.4C297.899 101.995 297.642 101.656 297.314 101.382C296.997 101.098 296.619 100.879 296.181 100.726C295.754 100.561 295.289 100.479 294.786 100.479H288.598ZM288.598 91.8286V97.6395H294.655C295.06 97.6286 295.437 97.541 295.787 97.3769C296.137 97.2127 296.438 96.9993 296.69 96.7367C296.942 96.4631 297.139 96.1567 297.281 95.8174C297.434 95.4782 297.511 95.1171 297.511 94.734C297.511 94.351 297.434 93.9844 297.281 93.6342C297.128 93.2841 296.914 92.9776 296.641 92.715C296.378 92.4414 296.066 92.228 295.705 92.0748C295.355 91.9107 294.977 91.8286 294.573 91.8286H288.598ZM305.227 91.2212C305.227 90.9914 305.265 90.7835 305.342 90.5975C305.43 90.4005 305.545 90.2309 305.687 90.0886C305.84 89.9354 306.01 89.8205 306.196 89.7439C306.393 89.6563 306.601 89.6126 306.819 89.6126C307.279 89.6126 307.668 89.7658 307.985 90.0722C308.302 90.3786 308.461 90.7616 308.461 91.2212C308.461 91.4401 308.417 91.648 308.33 91.845C308.242 92.031 308.122 92.2007 307.968 92.3539C307.826 92.4961 307.657 92.611 307.46 92.6986C307.263 92.7861 307.049 92.8299 306.819 92.8299C306.601 92.8299 306.393 92.7861 306.196 92.6986C306.01 92.611 305.84 92.4961 305.687 92.3539C305.545 92.2007 305.43 92.031 305.342 91.845C305.265 91.648 305.227 91.4401 305.227 91.2212ZM308.248 108.588C308.248 108.785 308.209 108.971 308.133 109.146C308.067 109.311 307.968 109.458 307.837 109.59C307.717 109.71 307.569 109.808 307.394 109.885C307.23 109.962 307.049 110 306.852 110C306.655 110 306.469 109.962 306.294 109.885C306.13 109.808 305.982 109.71 305.851 109.59C305.72 109.458 305.616 109.311 305.539 109.146C305.462 108.971 305.424 108.785 305.424 108.588V96.1622C305.424 95.7682 305.561 95.4344 305.835 95.1608C306.119 94.8763 306.464 94.734 306.869 94.734C307.263 94.734 307.591 94.8763 307.854 95.1608C308.116 95.4344 308.248 95.7682 308.248 96.1622V108.588ZM315.144 102.367C315.144 103.046 315.275 103.691 315.538 104.304C315.801 104.906 316.156 105.437 316.605 105.896C317.054 106.345 317.579 106.706 318.181 106.98C318.794 107.242 319.445 107.374 320.134 107.374C320.835 107.374 321.486 107.242 322.088 106.98C322.701 106.706 323.231 106.345 323.68 105.896C324.129 105.437 324.479 104.906 324.731 104.304C324.993 103.691 325.124 103.046 325.124 102.367C325.124 101.678 324.993 101.032 324.731 100.43C324.479 99.8172 324.129 99.2865 323.68 98.8378C323.231 98.3891 322.701 98.0335 322.088 97.7708C321.486 97.5082 320.835 97.3769 320.134 97.3769C319.445 97.3769 318.794 97.5082 318.181 97.7708C317.579 98.0335 317.054 98.3891 316.605 98.8378C316.156 99.2865 315.801 99.8172 315.538 100.43C315.275 101.032 315.144 101.678 315.144 102.367ZM312.304 102.367C312.304 101.284 312.507 100.266 312.912 99.3138C313.328 98.3618 313.891 97.5355 314.602 96.8352C315.314 96.1239 316.145 95.5657 317.098 95.1608C318.05 94.745 319.062 94.5371 320.134 94.5371C321.218 94.5371 322.23 94.745 323.171 95.1608C324.123 95.5657 324.949 96.1239 325.65 96.8352C326.361 97.5355 326.919 98.3618 327.324 99.3138C327.74 100.266 327.948 101.284 327.948 102.367C327.948 103.45 327.74 104.468 327.324 105.42C326.919 106.361 326.361 107.188 325.65 107.899C324.949 108.61 324.123 109.174 323.171 109.59C322.23 109.995 321.218 110.197 320.134 110.197C319.062 110.197 318.05 109.995 317.098 109.59C316.145 109.174 315.314 108.61 314.602 107.899C313.891 107.188 313.328 106.361 312.912 105.42C312.507 104.468 312.304 103.45 312.304 102.367ZM333.529 110C333.146 110 332.812 109.869 332.528 109.606C332.254 109.332 332.117 108.999 332.117 108.605V90.3841C332.117 89.9901 332.254 89.6618 332.528 89.3992C332.812 89.1256 333.146 88.9888 333.529 88.9888H341.08C341.868 88.9888 342.601 89.1365 343.279 89.432C343.969 89.7275 344.565 90.1324 345.069 90.6467C345.583 91.161 345.982 91.7629 346.267 92.4524C346.562 93.1418 346.71 93.875 346.71 94.652C346.71 95.4618 346.552 96.2278 346.234 96.9501C345.928 97.6614 345.501 98.2906 344.954 98.8378C345.742 99.4069 346.371 100.129 346.842 101.005C347.323 101.88 347.564 102.843 347.564 103.894C347.564 104.758 347.4 105.562 347.071 106.307C346.743 107.051 346.294 107.696 345.725 108.244C345.156 108.791 344.489 109.223 343.723 109.54C342.957 109.847 342.136 110 341.26 110H333.529ZM334.957 100.479V107.16H341.178C341.671 107.16 342.13 107.067 342.557 106.881C342.995 106.695 343.372 106.443 343.69 106.126C344.018 105.798 344.27 105.426 344.445 105.01C344.631 104.594 344.724 104.156 344.724 103.697C344.724 103.226 344.631 102.794 344.445 102.4C344.259 101.995 344.002 101.656 343.673 101.382C343.356 101.098 342.979 100.879 342.541 100.726C342.114 100.561 341.649 100.479 341.146 100.479H334.957ZM334.957 91.8286V97.6395H341.014C341.419 97.6286 341.797 97.541 342.147 97.3769C342.497 97.2127 342.798 96.9993 343.05 96.7367C343.301 96.4631 343.498 96.1567 343.641 95.8174C343.794 95.4782 343.87 95.1171 343.87 94.734C343.87 94.351 343.794 93.9844 343.641 93.6342C343.487 93.2841 343.274 92.9776 343 92.715C342.738 92.4414 342.426 92.228 342.065 92.0748C341.715 91.9107 341.337 91.8286 340.932 91.8286H334.957ZM351.455 96.1129C351.455 95.6971 351.538 95.3633 351.702 95.1116C351.877 94.849 352.167 94.7176 352.572 94.7176C352.922 94.7176 353.206 94.8544 353.425 95.128C353.655 95.3906 353.836 95.7244 353.967 96.1293L354.131 97.6067C354.722 96.7422 355.45 96.0472 356.314 95.522C357.19 94.9967 358.213 94.734 359.384 94.734H359.466C359.926 94.734 360.287 94.8708 360.549 95.1444C360.812 95.4071 360.943 95.7408 360.943 96.1457C360.943 96.5506 360.796 96.8899 360.5 97.1635C360.216 97.4371 359.871 97.5738 359.466 97.5738H359.384C358.684 97.5738 358.032 97.7106 357.43 97.9842C356.829 98.2469 356.303 98.608 355.855 99.0676C355.406 99.5272 355.045 100.069 354.771 100.693C354.498 101.316 354.339 101.979 354.295 102.679V108.539C354.295 108.944 354.164 109.289 353.901 109.573C353.65 109.858 353.321 110 352.916 110C352.501 110 352.15 109.858 351.866 109.573C351.592 109.289 351.455 108.944 351.455 108.539V96.1129ZM362.864 102.367C362.864 101.284 363.066 100.266 363.471 99.3138C363.887 98.3618 364.451 97.5355 365.162 96.8352C365.873 96.1239 366.705 95.5657 367.657 95.1608C368.609 94.745 369.621 94.5371 370.694 94.5371C371.733 94.5371 372.713 94.7286 373.632 95.1116C374.562 95.4946 375.383 96.0144 376.094 96.671L376.176 96.0965C376.33 95.6916 376.499 95.3633 376.685 95.1116C376.882 94.849 377.156 94.7176 377.506 94.7176C377.922 94.7176 378.212 94.849 378.376 95.1116C378.54 95.3633 378.622 95.6971 378.622 96.1129V108.539C378.622 108.944 378.48 109.289 378.195 109.573C377.922 109.858 377.577 110 377.161 110C376.756 110 376.423 109.858 376.16 109.573C375.908 109.289 375.782 108.944 375.782 108.539V108.129C375.082 108.752 374.3 109.256 373.435 109.639C372.571 110.011 371.657 110.197 370.694 110.197C369.621 110.197 368.609 109.995 367.657 109.59C366.705 109.174 365.873 108.61 365.162 107.899C364.451 107.188 363.887 106.361 363.471 105.42C363.066 104.468 362.864 103.45 362.864 102.367ZM365.704 102.367C365.704 103.046 365.835 103.691 366.098 104.304C366.36 104.906 366.716 105.437 367.165 105.896C367.613 106.345 368.139 106.706 368.74 106.98C369.353 107.242 370.004 107.374 370.694 107.374C371.394 107.374 372.045 107.242 372.647 106.98C373.26 106.706 373.791 106.345 374.239 105.896C374.688 105.437 375.038 104.906 375.29 104.304C375.553 103.691 375.684 103.046 375.684 102.367C375.684 101.678 375.553 101.032 375.29 100.43C375.038 99.8172 374.688 99.2865 374.239 98.8378C373.791 98.3891 373.26 98.0335 372.647 97.7708C372.045 97.5082 371.394 97.3769 370.694 97.3769C370.004 97.3769 369.353 97.5082 368.74 97.7708C368.139 98.0335 367.613 98.3891 367.165 98.8378C366.716 99.2865 366.36 99.8172 366.098 100.43C365.835 101.032 365.704 101.678 365.704 102.367ZM383.263 91.2212C383.263 90.9914 383.301 90.7835 383.377 90.5975C383.465 90.4005 383.58 90.2309 383.722 90.0886C383.875 89.9354 384.045 89.8205 384.231 89.7439C384.428 89.6563 384.636 89.6126 384.855 89.6126C385.314 89.6126 385.703 89.7658 386.02 90.0722C386.338 90.3786 386.496 90.7616 386.496 91.2212C386.496 91.4401 386.453 91.648 386.365 91.845C386.277 92.031 386.157 92.2007 386.004 92.3539C385.862 92.4961 385.692 92.611 385.495 92.6986C385.298 92.7861 385.085 92.8299 384.855 92.8299C384.636 92.8299 384.428 92.7861 384.231 92.6986C384.045 92.611 383.875 92.4961 383.722 92.3539C383.58 92.2007 383.465 92.031 383.377 91.845C383.301 91.648 383.263 91.4401 383.263 91.2212ZM386.283 108.588C386.283 108.785 386.245 108.971 386.168 109.146C386.102 109.311 386.004 109.458 385.873 109.59C385.752 109.71 385.604 109.808 385.429 109.885C385.265 109.962 385.085 110 384.888 110C384.691 110 384.505 109.962 384.33 109.885C384.165 109.808 384.018 109.71 383.886 109.59C383.755 109.458 383.651 109.311 383.574 109.146C383.498 108.971 383.46 108.785 383.46 108.588V96.1622C383.46 95.7682 383.596 95.4344 383.87 95.1608C384.154 94.8763 384.499 94.734 384.904 94.734C385.298 94.734 385.626 94.8763 385.889 95.1608C386.152 95.4344 386.283 95.7682 386.283 96.1622V108.588ZM391.243 96.1129C391.243 95.6971 391.325 95.3633 391.489 95.1116C391.664 94.849 391.954 94.7176 392.359 94.7176C392.709 94.7176 392.994 94.8544 393.212 95.128C393.442 95.3906 393.623 95.7244 393.754 96.1293L393.885 97.344C394.476 96.5014 395.21 95.8229 396.085 95.3086C396.971 94.7942 397.978 94.5371 399.105 94.5371C400.145 94.5371 401.07 94.734 401.879 95.128C402.689 95.522 403.368 96.0582 403.915 96.7367C404.473 97.4152 404.894 98.214 405.179 99.1333C405.463 100.042 405.606 101.016 405.606 102.055V108.621C405.606 109.026 405.469 109.36 405.195 109.622C404.933 109.885 404.604 110.016 404.21 110.016C403.816 110.016 403.477 109.885 403.193 109.622C402.908 109.36 402.766 109.026 402.766 108.621V102.137C402.766 102.039 402.771 101.962 402.782 101.907C402.76 101.284 402.651 100.698 402.454 100.151C402.268 99.5929 402 99.1114 401.65 98.7065C401.299 98.2906 400.873 97.9678 400.369 97.738C399.877 97.4972 399.319 97.3769 398.695 97.3769C398.071 97.3769 397.486 97.5082 396.939 97.7708C396.391 98.0335 395.91 98.3891 395.494 98.8378C395.089 99.2755 394.761 99.7844 394.509 100.364C394.268 100.944 394.126 101.546 394.082 102.17V108.539C394.082 108.944 393.951 109.289 393.688 109.573C393.437 109.858 393.108 110 392.704 110C392.288 110 391.937 109.858 391.653 109.573C391.379 109.289 391.243 108.944 391.243 108.539V96.1129Z" fill="#38C7C0"/>
<path d="M414.03 77.5904C414.67 77.5904 415.265 77.71 415.814 77.9491C416.37 78.1883 416.855 78.5147 417.268 78.9283C417.682 79.3355 418.005 79.817 418.238 80.3729C418.477 80.9287 418.597 81.5201 418.597 82.147C418.597 82.774 418.477 83.3622 418.238 83.9115C417.999 84.4609 417.672 84.9424 417.259 85.3561C416.852 85.7633 416.37 86.0865 415.814 86.3256C415.258 86.5583 414.66 86.6746 414.021 86.6746H411.306V89.1759C411.306 89.4086 411.222 89.6057 411.054 89.7673C410.892 89.9224 410.695 90 410.463 90C410.223 90 410.023 89.9192 409.861 89.7576C409.706 89.596 409.629 89.4021 409.629 89.1759V78.4242C409.629 78.3078 409.651 78.2012 409.697 78.1042C409.742 78.0008 409.8 77.9103 409.871 77.8328C409.949 77.7552 410.036 77.697 410.133 77.6583C410.236 77.613 410.346 77.5904 410.463 77.5904H414.03ZM411.306 79.2676V84.9974H414.05C414.463 84.9974 414.845 84.9198 415.194 84.7647C415.543 84.6031 415.843 84.3931 416.095 84.1345C416.354 83.8695 416.554 83.5658 416.696 83.2232C416.845 82.8806 416.919 82.5219 416.919 82.147C416.919 81.7786 416.845 81.4232 416.696 81.0806C416.554 80.7316 416.354 80.4246 416.095 80.1596C415.843 79.8881 415.543 79.6716 415.194 79.51C414.845 79.3484 414.467 79.2676 414.059 79.2676H411.306ZM420.558 81.798C420.558 81.5524 420.606 81.3553 420.703 81.2066C420.807 81.0515 420.978 80.974 421.217 80.974C421.424 80.974 421.592 81.0547 421.721 81.2163C421.857 81.3715 421.964 81.5686 422.041 81.8077L422.138 82.6803C422.487 82.1697 422.917 81.7592 423.428 81.449C423.945 81.1388 424.549 80.9836 425.241 80.9836H425.289C425.561 80.9836 425.774 81.0644 425.929 81.226C426.084 81.3811 426.162 81.5783 426.162 81.8174C426.162 82.0566 426.074 82.2569 425.9 82.4185C425.732 82.5801 425.528 82.6609 425.289 82.6609H425.241C424.827 82.6609 424.442 82.7417 424.087 82.9033C423.731 83.0584 423.421 83.2717 423.156 83.5431C422.891 83.8146 422.678 84.1345 422.516 84.5029C422.355 84.8713 422.261 85.2624 422.235 85.676V89.1371C422.235 89.3763 422.158 89.5799 422.002 89.7479C421.854 89.916 421.66 90 421.421 90C421.175 90 420.968 89.916 420.8 89.7479C420.639 89.5799 420.558 89.3763 420.558 89.1371V81.798ZM428.973 85.4918C428.973 85.8926 429.051 86.2739 429.206 86.6358C429.361 86.9913 429.571 87.3048 429.836 87.5763C430.101 87.8412 430.411 88.0545 430.767 88.2161C431.129 88.3712 431.513 88.4488 431.92 88.4488C432.334 88.4488 432.719 88.3712 433.074 88.2161C433.436 88.0545 433.75 87.8412 434.015 87.5763C434.28 87.3048 434.486 86.9913 434.635 86.6358C434.79 86.2739 434.868 85.8926 434.868 85.4918C434.868 85.0846 434.79 84.7033 434.635 84.3478C434.486 83.9859 434.28 83.6724 434.015 83.4074C433.75 83.1424 433.436 82.9323 433.074 82.7772C432.719 82.6221 432.334 82.5445 431.92 82.5445C431.513 82.5445 431.129 82.6221 430.767 82.7772C430.411 82.9323 430.101 83.1424 429.836 83.4074C429.571 83.6724 429.361 83.9859 429.206 84.3478C429.051 84.7033 428.973 85.0846 428.973 85.4918ZM427.296 85.4918C427.296 84.852 427.415 84.2509 427.655 83.6886C427.9 83.1262 428.233 82.6383 428.653 82.2246C429.073 81.8045 429.565 81.4749 430.127 81.2357C430.689 80.9901 431.287 80.8673 431.92 80.8673C432.56 80.8673 433.158 80.9901 433.714 81.2357C434.276 81.4749 434.764 81.8045 435.178 82.2246C435.598 82.6383 435.928 83.1262 436.167 83.6886C436.412 84.2509 436.535 84.852 436.535 85.4918C436.535 86.1317 436.412 86.7328 436.167 87.2951C435.928 87.8509 435.598 88.3389 435.178 88.759C434.764 89.1792 434.276 89.512 433.714 89.7576C433.158 89.9968 432.56 90.1163 431.92 90.1163C431.287 90.1163 430.689 89.9968 430.127 89.7576C429.565 89.512 429.073 89.1792 428.653 88.759C428.233 88.3389 427.9 87.8509 427.655 87.2951C427.415 86.7328 427.296 86.1317 427.296 85.4918Z" fill="#38C7C0"/>
</svg>
